<svg width="800" height="300" viewBox="0 0 800 300" fill="none" xmlns="http://www.w3.org/2000/svg">
<g clip-path="url(#clip0_3_2)">
<rect width="800" height="300" fill="black"/>
<path d="M167.375 166V116.5C167.375 116.5 177.604 116.5 198.062 116.5C203.021 116.5 207.271 118.938 210.812 123.812C214.396 128.646 216.188 134.458 216.188 141.25C216.188 148.083 214.396 153.917 210.812 158.75C207.271 163.583 203.021 166 198.062 166H167.375ZM171.875 161.5H198.062C201.771 161.5 204.938 159.521 207.562 155.562C210.229 151.604 211.562 146.833 211.562 141.25C211.562 135.625 210.229 130.854 207.562 126.938C204.938 122.979 201.771 121 198.062 121H171.875V161.5ZM162.875 170.5H198.062C204.271 170.5 209.604 167.646 214.062 161.938C218.562 156.188 220.812 149.292 220.812 141.25C220.812 135.958 219.771 131.062 217.688 126.562C215.646 122.062 212.875 118.521 209.375 115.938C205.917 113.312 202.146 112 198.062 112H162.875V170.5ZM158.375 175V107.5H198.062C202.938 107.5 207.479 109 211.688 112C215.896 115 219.229 119.104 221.688 124.312C224.188 129.479 225.438 135.125 225.438 141.25C225.438 147.333 224.188 152.979 221.688 158.188C219.229 163.396 215.896 167.5 211.688 170.5C207.479 173.5 202.938 175 198.062 175H158.375ZM153.875 179.5H198.062C203.771 179.5 209.062 177.792 213.938 174.375C218.854 170.958 222.771 166.312 225.688 160.438C228.604 154.562 230.062 148.167 230.062 141.25C230.062 134.375 228.604 128 225.688 122.125C222.771 116.208 218.854 111.542 213.938 108.125C209.021 104.708 203.729 103 198.062 103H153.875V179.5ZM149.375 184V98.5H198.062C204.562 98.5 210.625 100.417 216.25 104.25C221.875 108.042 226.354 113.229 229.688 119.812C233.021 126.396 234.688 133.542 234.688 141.25C234.688 148.958 233.021 156.104 229.688 162.688C226.354 169.271 221.875 174.479 216.25 178.312C210.625 182.104 204.562 184 198.062 184H149.375ZM144.875 188.5H198.062C203.521 188.5 208.792 187.25 213.875 184.75C218.958 182.25 223.354 178.896 227.062 174.688C230.771 170.479 233.729 165.458 235.938 159.625C238.188 153.75 239.312 147.625 239.312 141.25C239.312 134.875 238.188 128.771 235.938 122.938C233.729 117.104 230.771 112.083 227.062 107.875C223.354 103.625 218.958 100.25 213.875 97.75C208.792 95.25 203.521 94 198.062 94H144.875V188.5ZM198.062 193H140.375V89.5H198.062C206.188 89.5 213.771 91.8125 220.812 96.4375C227.854 101.062 233.458 107.354 237.625 115.312C241.833 123.271 243.938 131.917 243.938 141.25C243.938 148.25 242.688 154.958 240.188 161.375C237.729 167.75 234.438 173.25 230.312 177.875C226.188 182.5 221.292 186.188 215.625 188.938C210 191.646 204.146 193 198.062 193ZM280.875 103H285.375V193H280.875V103ZM271.875 103H276.375V193H271.875V103ZM262.875 103H267.375V193H262.875V103ZM253.875 103H258.375V193H253.875V103ZM361 148.625C361 143.292 359.354 139.167 356.062 136.25C352.771 133.333 348.417 131.875 343 131.875C338.417 131.875 334.479 133.458 331.188 136.625C327.896 139.792 326.25 143.583 326.25 148C326.25 150.5 326.583 152.75 327.25 154.75C327.917 156.708 328.812 158.354 329.938 159.688C331.104 160.979 332.479 162.062 334.062 162.938C335.646 163.771 337.292 164.375 339 164.75C340.75 165.125 342.604 165.312 344.562 165.312C349.312 165.312 353.646 164.146 357.562 161.812V166.312C353.521 168.438 349.167 169.5 344.5 169.5C341.5 169.5 338.667 169.104 336 168.312C333.375 167.479 330.979 166.25 328.812 164.625C326.646 162.958 324.917 160.708 323.625 157.875C322.375 155 321.75 151.708 321.75 148C321.75 142.25 323.771 137.375 327.812 133.375C331.854 129.375 336.917 127.375 343 127.375C349.708 127.375 355.125 129.271 359.25 133.062C363.417 136.812 365.5 142 365.5 148.625V193H361V148.625ZM374.5 148.625V193H370V148.625C370 140.75 367.479 134.5 362.438 129.875C357.396 125.208 350.917 122.875 343 122.875C335.667 122.875 329.542 125.312 324.625 130.188C319.708 135.062 317.25 141 317.25 148C317.25 152.25 317.979 156.062 319.438 159.438C320.938 162.812 322.958 165.521 325.5 167.562C328.042 169.604 330.875 171.167 334 172.25C337.167 173.292 340.5 173.812 344 173.812C348.75 173.812 353.271 172.708 357.562 170.5V175.25C353.062 177.125 348.521 178.062 343.938 178.062C339.812 178.062 335.896 177.438 332.188 176.188C328.479 174.896 325.167 173.042 322.25 170.625C319.333 168.167 317.021 165 315.312 161.125C313.604 157.208 312.75 152.833 312.75 148C312.75 139.792 315.646 132.812 321.438 127.062C327.271 121.271 334.458 118.375 343 118.375C349 118.375 354.375 119.604 359.125 122.062C363.875 124.479 367.625 128 370.375 132.625C373.125 137.25 374.5 142.583 374.5 148.625ZM383.5 148.625V193H379V148.625C379 141.75 377.417 135.667 374.25 130.375C371.125 125.042 366.833 120.958 361.375 118.125C355.917 115.292 349.792 113.875 343 113.875C336.542 113.875 330.646 115.417 325.312 118.5C319.979 121.542 315.792 125.667 312.75 130.875C309.75 136.083 308.25 141.792 308.25 148C308.25 153.333 309.229 158.208 311.188 162.625C313.146 167 315.771 170.604 319.062 173.438C322.396 176.271 326.167 178.479 330.375 180.062C334.625 181.604 339.062 182.375 343.688 182.375C348.396 182.375 353.021 181.396 357.562 179.438V184C352.812 185.792 348.146 186.688 343.562 186.688C336.354 186.688 329.729 185.062 323.688 181.812C317.646 178.562 312.812 173.958 309.188 168C305.562 162.042 303.75 155.375 303.75 148C303.75 142.75 304.75 137.75 306.75 133C308.792 128.25 311.542 124.146 315 120.688C318.458 117.229 322.625 114.479 327.5 112.438C332.375 110.396 337.542 109.375 343 109.375C350.625 109.375 357.5 111 363.625 114.25C369.792 117.5 374.646 122.125 378.188 128.125C381.729 134.125 383.5 140.958 383.5 148.625ZM392.5 148.625V193H388V148.625C388 140.125 386.021 132.542 382.062 125.875C378.104 119.167 372.708 114 365.875 110.375C359.042 106.708 351.417 104.875 343 104.875C334.917 104.875 327.521 106.812 320.812 110.688C314.104 114.562 308.833 119.812 305 126.438C301.167 133.021 299.25 140.208 299.25 148C299.25 153.125 300.062 158 301.688 162.625C303.354 167.208 305.604 171.229 308.438 174.688C311.312 178.104 314.604 181.062 318.312 183.562C322.062 186.062 326.083 187.958 330.375 189.25C334.708 190.542 339.104 191.188 343.562 191.188C348.479 191.188 353.146 190.25 357.562 188.375V193C352.938 194.625 348.188 195.438 343.312 195.438C338.271 195.438 333.354 194.729 328.562 193.312C323.812 191.896 319.396 189.812 315.312 187.062C311.271 184.271 307.708 181 304.625 177.25C301.542 173.458 299.125 169.042 297.375 164C295.625 158.958 294.75 153.625 294.75 148C294.75 141.542 295.958 135.396 298.375 129.562C300.833 123.688 304.167 118.625 308.375 114.375C312.625 110.083 317.75 106.688 323.75 104.188C329.792 101.646 336.208 100.375 343 100.375C349.917 100.375 356.417 101.542 362.5 103.875C368.583 106.208 373.833 109.458 378.25 113.625C382.667 117.75 386.146 122.833 388.688 128.875C391.229 134.917 392.5 141.5 392.5 148.625ZM419.562 127.938H424.062V193H419.562V127.938ZM401.562 107.5V103H469.062V107.5H401.562ZM401.562 116.5V112H469.062V116.5H401.562ZM401.562 125.5V121H469.062V125.5H401.562ZM446.562 127.938H451.062V193H446.562V127.938ZM437.562 127.938H442.062V193H437.562V127.938ZM428.562 127.938H433.062V193H428.562V127.938ZM513.375 135.312C509.875 138.812 508.125 143.042 508.125 148C508.125 152.958 509.875 157.208 513.375 160.75C516.917 164.25 521.167 166 526.125 166C531.083 166 535.312 164.25 538.812 160.75C542.354 157.208 544.125 152.958 544.125 148C544.125 143.042 542.354 138.812 538.812 135.312C535.312 131.771 531.083 130 526.125 130C521.167 130 516.917 131.771 513.375 135.312ZM510.188 163.938C505.812 159.521 503.625 154.208 503.625 148C503.625 141.792 505.812 136.5 510.188 132.125C514.604 127.708 519.917 125.5 526.125 125.5C532.333 125.5 537.625 127.708 542 132.125C546.417 136.5 548.625 141.792 548.625 148C548.625 154.208 546.417 159.521 542 163.938C537.625 168.312 532.333 170.5 526.125 170.5C519.917 170.5 514.604 168.312 510.188 163.938ZM507 128.938C501.75 134.229 499.125 140.583 499.125 148C499.125 155.417 501.75 161.771 507 167.062C512.292 172.354 518.667 175 526.125 175C533.583 175 539.938 172.354 545.188 167.062C550.479 161.771 553.125 155.417 553.125 148C553.125 140.583 550.479 134.229 545.188 128.938C539.938 123.646 533.583 121 526.125 121C518.667 121 512.292 123.646 507 128.938ZM498.812 163.812C496.021 158.979 494.625 153.708 494.625 148C494.625 142.292 496.021 137.021 498.812 132.188C501.646 127.354 505.479 123.542 510.312 120.75C515.146 117.917 520.417 116.5 526.125 116.5C531.833 116.5 537.104 117.917 541.938 120.75C546.771 123.542 550.583 127.354 553.375 132.188C556.208 137.021 557.625 142.292 557.625 148C557.625 153.708 556.208 158.979 553.375 163.812C550.583 168.646 546.771 172.479 541.938 175.312C537.104 178.104 531.833 179.5 526.125 179.5C520.417 179.5 515.146 178.104 510.312 175.312C505.479 172.479 501.646 168.646 498.812 163.812ZM492.938 134.062C491.062 138.479 490.125 143.125 490.125 148C490.125 152.875 491.062 157.542 492.938 162C494.854 166.417 497.417 170.25 500.625 173.5C503.875 176.708 507.708 179.271 512.125 181.188C516.583 183.062 521.25 184 526.125 184C531 184 535.646 183.062 540.062 181.188C544.521 179.271 548.354 176.708 551.562 173.5C554.812 170.25 557.375 166.417 559.25 162C561.167 157.542 562.125 152.875 562.125 148C562.125 143.125 561.167 138.479 559.25 134.062C557.375 129.604 554.812 125.771 551.562 122.562C548.354 119.312 544.521 116.75 540.062 114.875C535.646 112.958 531 112 526.125 112C521.25 112 516.583 112.958 512.125 114.875C507.708 116.75 503.875 119.312 500.625 122.562C497.417 125.771 494.854 129.604 492.938 134.062ZM488.812 163.75C486.688 158.75 485.625 153.5 485.625 148C485.625 142.5 486.688 137.25 488.812 132.25C490.979 127.25 493.854 122.958 497.438 119.375C501.062 115.75 505.375 112.875 510.375 110.75C515.375 108.583 520.625 107.5 526.125 107.5C531.625 107.5 536.875 108.583 541.875 110.75C546.875 112.875 551.167 115.75 554.75 119.375C558.375 122.958 561.25 127.25 563.375 132.25C565.542 137.25 566.625 142.5 566.625 148C566.625 153.5 565.542 158.75 563.375 163.75C561.25 168.75 558.375 173.062 554.75 176.688C551.167 180.271 546.875 183.146 541.875 185.312C536.875 187.438 531.625 188.5 526.125 188.5C520.625 188.5 515.375 187.438 510.375 185.312C505.375 183.146 501.062 180.271 497.438 176.688C493.854 173.062 490.979 168.75 488.812 163.75ZM484.688 130.562C482.312 136.104 481.125 141.917 481.125 148C481.125 154.083 482.312 159.917 484.688 165.5C487.062 171.042 490.25 175.833 494.25 179.875C498.292 183.875 503.083 187.062 508.625 189.438C514.208 191.812 520.042 193 526.125 193C532.208 193 538.021 191.812 543.562 189.438C549.146 187.062 553.938 183.875 557.938 179.875C561.979 175.833 565.188 171.042 567.562 165.5C569.938 159.917 571.125 154.083 571.125 148C571.125 141.917 569.938 136.104 567.562 130.562C565.188 124.979 561.979 120.188 557.938 116.188C553.938 112.146 549.146 108.938 543.562 106.562C538.021 104.188 532.208 103 526.125 103C520.042 103 514.208 104.188 508.625 106.562C503.083 108.938 498.292 112.146 494.25 116.188C490.25 120.188 487.062 124.979 484.688 130.562ZM480.562 167.25C477.938 161.125 476.625 154.708 476.625 148C476.625 141.292 477.938 134.896 480.562 128.812C483.188 122.688 486.708 117.417 491.125 113C495.542 108.583 500.792 105.062 506.875 102.438C513 99.8125 519.417 98.5 526.125 98.5C532.833 98.5 539.229 99.8125 545.312 102.438C551.438 105.062 556.708 108.583 561.125 113C565.542 117.417 569.062 122.688 571.688 128.812C574.312 134.896 575.625 141.292 575.625 148C575.625 154.708 574.312 161.125 571.688 167.25C569.062 173.333 565.542 178.583 561.125 183C556.708 187.417 551.438 190.938 545.312 193.562C539.229 196.188 532.833 197.5 526.125 197.5C519.417 197.5 513 196.188 506.875 193.562C500.792 190.938 495.542 187.417 491.125 183C486.708 178.583 483.188 173.333 480.562 167.25ZM619.75 150H646.875C650.458 150 653.5 148.875 656 146.625C658.5 144.375 659.75 141.208 659.75 137.125C659.75 134.125 658.438 131.438 655.812 129.062C653.229 126.688 650.25 125.5 646.875 125.5H608.25V193H603.75V121H646.875C651.5 121 655.542 122.625 659 125.875C662.5 129.125 664.25 132.875 664.25 137.125C664.25 142.417 662.562 146.646 659.188 149.812C655.812 152.938 651.708 154.5 646.875 154.5H619.75V150ZM619.75 159H646.875C652.875 159 658.021 156.958 662.312 152.875C666.604 148.792 668.75 143.542 668.75 137.125C668.75 131.667 666.562 126.875 662.188 122.75C657.812 118.583 652.708 116.5 646.875 116.5H599.25V193H594.75V112H646.875C653.958 112 660.125 114.521 665.375 119.562C670.625 124.562 673.25 130.417 673.25 137.125C673.25 144.625 670.646 150.896 665.438 155.938C660.271 160.979 654.083 163.5 646.875 163.5H619.75V159ZM619.75 168H646.875C652.417 168 657.542 166.667 662.25 164C666.958 161.333 670.708 157.625 673.5 152.875C676.333 148.125 677.75 142.875 677.75 137.125C677.75 131.917 676.354 127.042 673.562 122.5C670.771 117.917 666.979 114.271 662.188 111.562C657.438 108.854 652.333 107.5 646.875 107.5H590.25V193H585.75V103H646.875C651.583 103 656.104 103.938 660.438 105.812C664.812 107.646 668.583 110.104 671.75 113.188C674.917 116.229 677.458 119.854 679.375 124.062C681.292 128.271 682.25 132.625 682.25 137.125C682.25 144.417 680.583 150.792 677.25 156.25C673.917 161.667 669.438 165.792 663.812 168.625L673.25 193H668.438L659.5 170.438C658.375 170.812 657.062 171.188 655.562 171.562L664 193H659.188L650.938 172.312C649.646 172.438 648.292 172.5 646.875 172.5L654.812 193H650.062L642.188 172.5H638.125L645.688 193H640.938L633.312 172.5H619.75V168ZM617.25 193H612.75V130H646.875C649.208 130 651.188 130.708 652.812 132.125C654.438 133.5 655.25 135.167 655.25 137.125C655.25 142.708 652.458 145.5 646.875 145.5H619.75V141H646.875C649.458 141 650.75 139.708 650.75 137.125C650.75 136.417 650.354 135.812 649.562 135.312C648.812 134.771 647.917 134.5 646.875 134.5H617.25V193Z" fill="#FF0000"/>
</g>
<defs>
<clipPath id="clip0_3_2">
<rect width="800" height="300" fill="white"/>
</clipPath>
</defs>
</svg>
